<svg width="200" height="200" xmlns="http://www.w3.org/2000/svg">
  <!-- Background -->
  <circle cx="100" cy="100" r="95" fill="#0078d4" stroke="#ffffff" stroke-width="5"/>
  
  <!-- AI Brain/Circuit Design -->
  <g stroke="#ffffff" stroke-width="3" fill="none" stroke-linecap="round">
    <!-- Main neural pathways -->
    <path d="M40 80 Q70 50 100 80 Q130 50 160 80"/>
    <path d="M40 120 Q70 150 100 120 Q130 150 160 120"/>
    <path d="M80 40 Q100 70 120 40"/>
    <path d="M80 160 Q100 130 120 160"/>
    
    <!-- Cross connections -->
    <path d="M60 70 Q100 100 140 70"/>
    <path d="M60 130 Q100 100 140 130"/>
  </g>
  
  <!-- Neural nodes -->
  <circle cx="100" cy="100" r="8" fill="#ffffff"/>
  <circle cx="100" cy="100" r="4" fill="#0078d4"/>
  
  <!-- Outer nodes -->
  <circle cx="50" cy="80" r="4" fill="#ffffff"/>
  <circle cx="150" cy="80" r="4" fill="#ffffff"/>
  <circle cx="50" cy="120" r="4" fill="#ffffff"/>
  <circle cx="150" cy="120" r="4" fill="#ffffff"/>
  <circle cx="80" cy="50" r="4" fill="#ffffff"/>
  <circle cx="120" cy="50" r="4" fill="#ffffff"/>
  <circle cx="80" cy="150" r="4" fill="#ffffff"/>
  <circle cx="120" cy="150" r="4" fill="#ffffff"/>
  
  <!-- Text overlay -->
  <text x="100" y="180" font-family="Arial, sans-serif" font-size="16" fill="#ffffff" text-anchor="middle" font-weight="bold">A{I}gile</text>
</svg>